<?xml version="1.0" ?>
<svg id="local-save" viewBox="0 0 64 64" xmlns="http://www.w3.org/2000/svg">
    <path d="M50,17h-.61a1,1,0,0,1-.943-.666,9.486,9.486,0,0,0-17.573-.795,1,1,0,0,1-1.619.285A9.5,9.5,0,0,0,13,22.5V26a1,1,0,0,1-1,1H9A5,5,0,0,0,9,37h7.051a15.979,15.979,0,0,1,31.9,0H50a10,10,0,0,0,0-20Zm6,13H54V28h2Zm-2-4a4,4,0,0,0-4-4V20a6.006,6.006,0,0,1,6,6Z"/>
    <g id="a">
        <polygon points="22 44 22 51.414 28.739 44 22 44"/>
        <path d="M32,24A14.007,14.007,0,0,0,18.051,37h4A10,10,0,1,1,32,48a9.862,9.862,0,0,1-3.574-.682L25.6,50.43A13.992,13.992,0,1,0,32,24Z"/>
    </g>
</svg>